<mxfile host="app.diagrams.net" modified="2024-01-03T06:21:28.899Z" agent="Mozilla/5.0 (Windows NT 10.0; Win64; x64) AppleWebKit/537.36 (KHTML, like Gecko) Chrome/120.0.0.0 Safari/537.36 Edg/120.0.0.0" etag="1ywHbA4tcSbxUw8CrM1P" version="22.1.16" type="github">
  <diagram name="Page-1" id="74b105a0-9070-1c63-61bc-23e55f88626e">
    <mxGraphModel dx="2205" dy="1356" grid="1" gridSize="10" guides="1" tooltips="1" connect="1" arrows="1" fold="1" page="1" pageScale="1.5" pageWidth="1169" pageHeight="826" background="none" math="0" shadow="0">
      <root>
        <mxCell id="0" style=";html=1;" />
        <mxCell id="1" style=";html=1;" parent="0" />
        <mxCell id="10b056a9c633e61c-30" value="Title" style="text;strokeColor=none;fillColor=none;html=1;fontSize=24;fontStyle=1;verticalAlign=middle;align=center;" parent="1" vertex="1">
          <mxGeometry x="80" y="40" width="1590" height="40" as="geometry" />
        </mxCell>
        <mxCell id="B4mYDhv5v_o22yBRZZIX-8" value="" style="endArrow=classic;html=1;rounded=0;" edge="1" parent="1" source="B4mYDhv5v_o22yBRZZIX-6">
          <mxGeometry width="50" height="50" relative="1" as="geometry">
            <mxPoint x="940" y="720" as="sourcePoint" />
            <mxPoint x="880" y="620" as="targetPoint" />
          </mxGeometry>
        </mxCell>
        <mxCell id="B4mYDhv5v_o22yBRZZIX-9" value="resume (setjmp)" style="edgeLabel;html=1;align=center;verticalAlign=middle;resizable=0;points=[];fontSize=22;" vertex="1" connectable="0" parent="B4mYDhv5v_o22yBRZZIX-8">
          <mxGeometry x="-0.0937" y="-1" relative="1" as="geometry">
            <mxPoint as="offset" />
          </mxGeometry>
        </mxCell>
        <mxCell id="B4mYDhv5v_o22yBRZZIX-11" value="" style="group" vertex="1" connectable="0" parent="1">
          <mxGeometry x="1080" y="440" width="90" height="260" as="geometry" />
        </mxCell>
        <mxCell id="B4mYDhv5v_o22yBRZZIX-6" value="" style="rounded=0;whiteSpace=wrap;html=1;" vertex="1" parent="B4mYDhv5v_o22yBRZZIX-11">
          <mxGeometry y="65" width="90" height="195" as="geometry" />
        </mxCell>
        <mxCell id="B4mYDhv5v_o22yBRZZIX-7" value="&lt;font style=&quot;font-size: 19px;&quot;&gt;协程A&lt;/font&gt;" style="text;html=1;strokeColor=none;fillColor=none;align=center;verticalAlign=middle;whiteSpace=wrap;rounded=0;" vertex="1" parent="B4mYDhv5v_o22yBRZZIX-11">
          <mxGeometry x="10" width="60" height="43.333333333333336" as="geometry" />
        </mxCell>
        <mxCell id="B4mYDhv5v_o22yBRZZIX-12" value="" style="group" vertex="1" connectable="0" parent="1">
          <mxGeometry x="677" y="370" width="200" height="500" as="geometry" />
        </mxCell>
        <mxCell id="B4mYDhv5v_o22yBRZZIX-2" value="" style="rounded=0;whiteSpace=wrap;html=1;" vertex="1" parent="B4mYDhv5v_o22yBRZZIX-12">
          <mxGeometry y="80" width="200" height="420" as="geometry" />
        </mxCell>
        <mxCell id="B4mYDhv5v_o22yBRZZIX-3" value="进程栈（C栈）" style="text;html=1;strokeColor=none;fillColor=none;align=center;verticalAlign=middle;whiteSpace=wrap;rounded=0;fontSize=20;" vertex="1" parent="B4mYDhv5v_o22yBRZZIX-12">
          <mxGeometry x="20" width="160" height="70" as="geometry" />
        </mxCell>
        <mxCell id="B4mYDhv5v_o22yBRZZIX-4" value="A" style="rounded=0;whiteSpace=wrap;html=1;fontSize=28;" vertex="1" parent="B4mYDhv5v_o22yBRZZIX-12">
          <mxGeometry x="33" y="110" width="120" height="140" as="geometry" />
        </mxCell>
        <mxCell id="B4mYDhv5v_o22yBRZZIX-5" value="B" style="rounded=0;whiteSpace=wrap;html=1;fontSize=28;" vertex="1" parent="B4mYDhv5v_o22yBRZZIX-12">
          <mxGeometry x="33" y="300" width="120" height="130" as="geometry" />
        </mxCell>
        <mxCell id="B4mYDhv5v_o22yBRZZIX-14" value="" style="group" vertex="1" connectable="0" parent="1">
          <mxGeometry x="440" y="560" width="90" height="260" as="geometry" />
        </mxCell>
        <mxCell id="B4mYDhv5v_o22yBRZZIX-15" value="" style="rounded=0;whiteSpace=wrap;html=1;" vertex="1" parent="B4mYDhv5v_o22yBRZZIX-14">
          <mxGeometry y="65" width="90" height="195" as="geometry" />
        </mxCell>
        <mxCell id="B4mYDhv5v_o22yBRZZIX-16" value="&lt;font style=&quot;font-size: 19px;&quot;&gt;协程B&lt;/font&gt;" style="text;html=1;strokeColor=none;fillColor=none;align=center;verticalAlign=middle;whiteSpace=wrap;rounded=0;" vertex="1" parent="B4mYDhv5v_o22yBRZZIX-14">
          <mxGeometry x="10" width="60" height="43.333333333333336" as="geometry" />
        </mxCell>
        <mxCell id="B4mYDhv5v_o22yBRZZIX-17" value="" style="endArrow=classic;html=1;rounded=0;entryX=1;entryY=0;entryDx=0;entryDy=0;exitX=-0.004;exitY=0.414;exitDx=0;exitDy=0;exitPerimeter=0;" edge="1" parent="1" source="B4mYDhv5v_o22yBRZZIX-2" target="B4mYDhv5v_o22yBRZZIX-15">
          <mxGeometry width="50" height="50" relative="1" as="geometry">
            <mxPoint x="620" y="570" as="sourcePoint" />
            <mxPoint x="990" y="670" as="targetPoint" />
          </mxGeometry>
        </mxCell>
        <mxCell id="B4mYDhv5v_o22yBRZZIX-20" value="" style="endArrow=classic;html=1;rounded=0;exitX=1;exitY=0.25;exitDx=0;exitDy=0;entryX=0;entryY=0;entryDx=0;entryDy=0;" edge="1" parent="1" source="B4mYDhv5v_o22yBRZZIX-15" target="B4mYDhv5v_o22yBRZZIX-5">
          <mxGeometry width="50" height="50" relative="1" as="geometry">
            <mxPoint x="940" y="720" as="sourcePoint" />
            <mxPoint x="990" y="670" as="targetPoint" />
          </mxGeometry>
        </mxCell>
        <mxCell id="B4mYDhv5v_o22yBRZZIX-21" value="" style="endArrow=classic;html=1;rounded=0;exitX=0;exitY=0.5;exitDx=0;exitDy=0;" edge="1" parent="1" source="B4mYDhv5v_o22yBRZZIX-5" target="B4mYDhv5v_o22yBRZZIX-15">
          <mxGeometry width="50" height="50" relative="1" as="geometry">
            <mxPoint x="940" y="720" as="sourcePoint" />
            <mxPoint x="990" y="670" as="targetPoint" />
          </mxGeometry>
        </mxCell>
        <mxCell id="B4mYDhv5v_o22yBRZZIX-22" value="" style="endArrow=classic;html=1;rounded=0;exitX=0;exitY=0.75;exitDx=0;exitDy=0;" edge="1" parent="1" source="B4mYDhv5v_o22yBRZZIX-15">
          <mxGeometry width="50" height="50" relative="1" as="geometry">
            <mxPoint x="940" y="720" as="sourcePoint" />
            <mxPoint x="890" y="620" as="targetPoint" />
            <Array as="points">
              <mxPoint x="340" y="771" />
              <mxPoint x="340" y="930" />
              <mxPoint x="990" y="920" />
              <mxPoint x="1000" y="680" />
            </Array>
          </mxGeometry>
        </mxCell>
        <mxCell id="B4mYDhv5v_o22yBRZZIX-24" value="&lt;font style=&quot;font-size: 28px;&quot;&gt;yield(longjmp)&lt;/font&gt;" style="edgeLabel;html=1;align=center;verticalAlign=middle;resizable=0;points=[];" vertex="1" connectable="0" parent="B4mYDhv5v_o22yBRZZIX-22">
          <mxGeometry x="-0.0642" y="-4" relative="1" as="geometry">
            <mxPoint as="offset" />
          </mxGeometry>
        </mxCell>
      </root>
    </mxGraphModel>
  </diagram>
</mxfile>
